<?xml version="1.0" standalone="no"?><!DOCTYPE svg PUBLIC "-//W3C//DTD SVG 1.1//EN" "http://www.w3.org/Graphics/SVG/1.1/DTD/svg11.dtd"><svg t="1505295147017" class="icon" style="" viewBox="0 0 1024 1024" version="1.1" xmlns="http://www.w3.org/2000/svg" p-id="4055" xmlns:xlink="http://www.w3.org/1999/xlink" width="200" height="200"><defs><style type="text/css"></style></defs><path d="M603.197048 731.980133c0-26.63359-21.488407-48.771797-48.771797-48.771797-26.682709 0-48.771797 22.137183-48.771797 48.771797 0 27.278273 22.089088 48.771797 48.771797 48.771797C581.707618 780.750907 603.197048 759.257383 603.197048 731.980133zM988.734822 417.560094c-9.193383-40.007179-32.159444-71.445192-70.37686-71.445192l-76.810387 0c-0.497327-18.069541 0-36.602639 0-55.082526 0.453325-25.414833 0.911766-50.805106 0-75.751265 0-10.759041-9.69071-18.961864-21.176298-18.961864l-0.921999 0c-39.139415-0.823761-91.554182-0.428765-138.954749 0-14.748912 0-27.151383 0-60.774155 0-8.271384 0-15.163351 4.330632-18.337647 10.778484-27.190269 40.865733-62.60792 98.547457-92.514043 148.07036-6.467295 10.276041-12.407588 20.201088-18.416442 30.082132-13.788028-17.655102-29.024034-37.866423-44.645826-58.096163-23.473621-30.984688-47.366797-61.534472-63.452147-82.199117-18.420535-22.810518-36.836977-33.091676-57.510832-31.408337-18.874883 1.287319-36.836977 12.929474-56.131415 34.003442L161.956625 363.331006c-6.013971 6.876618-6.476505 16.762779-0.960885 24.108071 6.467295 9.022491 11.066033 16.792455 16.119119 24.922622 7.851828 12.929474 16.124236 25.858948 30.325679 44.337811 6.472412 8.632611 19.377326 10.349719 28.570709 4.296863 2.25332-1.682315 4.136204-3.438309 5.511527-5.116531 9.69071-11.642155 17.036002-20.239973 24.390503-28.906353 16.538675-19.767206 33.57877-39.534412 51.503001-59.774385 5.097088-6.013971 4.175089-10.30981 5.550413-9.491165 5.51562 2.579755 15.202237 15.509229 29.906124 37.036521l122.377188 175.162392c4.136204 5.589298 23.551392 15.757892 30.404474 15.757892 141.296073 2.184759 248.954025 0 390.171304 0l22.532179-7.198959c37.295418 0 60.763922-32.266891 69.918419-73.52762 3.25309-13.821797 5.091972-28.867468 5.091972-43.942815C993.368352 445.954795 991.529471 431.309236 988.734822 417.560094zM798.282189 367.67187c0 12.728906-9.505491 22.907733-21.386076 22.907733L627.90887 390.579603l-0.433882 0c-3.369747 0-7.164167-1.014096-10.500145-3.057639-10.490935-6.106068-13.777795-19.850094-8.076956-31.076786l51.843762-98.372471c3.325745-8.163937 10.973936-13.807471 19.523659-13.807471l96.630804 0c11.880585 0 21.386076 10.734482 21.386076 22.946618L798.282189 367.67187zM358.388437 618.942661c-44.605917-9.027607-79.150688-20.201088-103.078657-39.148625-22.981411-18.08489-37.261649-44.732807-43.694151-84.808548-0.424672-2.974751-1.375324-6.013971-3.716648-8.558933l-55.634088-79.609129c-6.013971-9.032724-18.878976-11.646248-28.487821-5.628184-0.960885 0.433882-1.877767 1.292436-2.799766 2.15099C62.550615 450.680423 17.939581 507.090177 34.941813 583.236438c5.476735 24.097838 17.45965 46.483684 34.500768 64.99734 16.080234 18.908652 37.72009 33.989115 62.149479 44.7676 64.822354 27.511587 152.284335 23.249517 236.024551-40.070624 8.724709-6.41306 10.105149-18.913768 3.214205-27.112498C367.616612 621.951181 363.021967 619.800191 358.388437 618.942661zM749.511415 731.980133c0-26.63359-21.424962-48.771797-48.800449-48.771797-26.560936 0-48.742121 22.137183-48.742121 48.771797 0 27.278273 22.181185 48.771797 48.742121 48.771797C728.08543 780.750907 749.511415 759.257383 749.511415 731.980133zM948.428837 663.134139c-17.128099-17.591657-41.012066-28.697599-67.13912-28.697599L503.142262 634.43654c-26.092261 0-49.971112 11.104919-67.104327 28.697599-17.089214 17.626449-27.926026 41.772382-27.926026 68.616774 0 26.414603 10.383488 50.059116 27.02961 67.684542 0 0.424672 0.448208 0.887206 0.89744 1.38965 17.133216 17.58654 41.012066 28.697599 67.104327 28.697599L881.285624 829.522704c25.677822 0 48.66435-10.646478 65.753563-27.306926 0.49221-0.502443 0.941442-0.931209 1.38965-1.38965 17.089214-17.626449 27.892257-42.197054 27.892257-69.075215 0-25.922393-10.30981-50.064232-26.994818-67.650773C949.326277 663.636582 948.882162 663.636582 948.428837 663.134139zM910.880663 766.202563l-0.86367 0.804319c-9.144264 8.486278-22.151509 13.744026-36.06131 13.744026l-26.931373 0L700.709943 780.750907 554.425252 780.750907 509.37522 780.750907c-14.265912 0-27.740808-5.661953-36.886095-14.548344-0.428765 0-0.86367-0.405229-0.86367-0.844228-9.144264-8.486278-14.743796-20.645203-14.743796-33.57877 0-13.338796 6.033413-25.463951 15.606443-34.389228 9.579169-8.930393 22.620184-14.183024 36.886095-14.183024l45.050032 0 146.284691 0 146.314367 0 26.931373 0c14.343683 0 28.379351 6.275937 37.948287 15.20633l-0.189312-0.218988c9.140171 8.895601 14.811334 20.650319 14.811334 33.583886C926.525991 745.148038 920.419923 757.716284 910.880663 766.202563zM895.824759 731.980133c0-26.63359-21.419845-48.771797-48.800449-48.771797-26.560936 0-48.742121 22.137183-48.742121 48.771797 0 27.278273 22.181185 48.771797 48.742121 48.771797C874.404913 780.750907 895.824759 759.257383 895.824759 731.980133z" p-id="4056" fill="#8a8a8a"></path></svg>